<?xml version="1.0" encoding="utf-8"?>
<!-- Generator: Adobe Illustrator 24.1.3, SVG Export Plug-In . SVG Version: 6.00 Build 0)  -->
<svg version="1.1" id="Warstwa_1" xmlns="http://www.w3.org/2000/svg" xmlns:xlink="http://www.w3.org/1999/xlink" x="0px" y="0px"
	 viewBox="0 0 24 16" style="enable-background:new 0 0 24 16;" xml:space="preserve">
<style type="text/css">
	.st0{fill:none;}
	.st1{fill-rule:evenodd;clip-rule:evenodd;}
</style>
<desc>Created with Sketch.</desc>
<g id="Icons">
	<g id="Outlined" transform="translate(-304.000000, -2284.000000)">
		<g id="File" transform="translate(100.000000, 2226.000000)">
			<g id="Outlined-_x2F_-File-_x2F_-cloud_x5F_queue" transform="translate(204.000000, 54.000000)">
				<g>
					<polygon id="Path" class="st0" points="0,0 24,0 24,24 0,24 					"/>
					<path id="_xD83D__xDD39_-Icon-Color" class="st1" d="M19.4,10c-0.7-3.4-3.7-6-7.4-6C9.1,4,6.6,5.6,5.3,8C2.3,8.4,0,10.9,0,14
						c0,3.3,2.7,6,6,6h13c2.8,0,5-2.2,5-5C24,12.4,22,10.2,19.4,10z M19,18H6c-2.2,0-4-1.8-4-4s1.8-4,4-4h0.7C7.4,7.7,9.5,6,12,6
						c3,0,5.5,2.5,5.5,5.5V12H19c1.7,0,3,1.3,3,3S20.7,18,19,18z"/>
				</g>
			</g>
		</g>
	</g>
</g>
</svg>
