<?xml version="1.0" encoding="utf-8"?>
<!-- Generator: Adobe Illustrator 24.2.1, SVG Export Plug-In . SVG Version: 6.00 Build 0)  -->
<svg version="1.1" id="Capa_1" xmlns="http://www.w3.org/2000/svg" xmlns:xlink="http://www.w3.org/1999/xlink" x="0px" y="0px"
	 viewBox="0 0 24 24" style="enable-background:new 0 0 24 24;" xml:space="preserve">
<style type="text/css">
	.st0{fill:#FFFFFF;stroke:#FFFFFF;stroke-width:0.75;stroke-miterlimit:10;}
</style>
<g>
	<path class="st0" d="M12,19.8c-0.5,0-0.8,0.4-0.8,0.8v2.2c0,0.5,0.4,0.8,0.8,0.8c0.5,0,0.8-0.4,0.8-0.8v-2.2
		C12.8,20.2,12.4,19.8,12,19.8z"/>
	<path class="st0" d="M12,4.2c0.5,0,0.8-0.4,0.8-0.8V1.1c0-0.5-0.4-0.8-0.8-0.8c-0.5,0-0.8,0.4-0.8,0.8v2.2
		C11.3,3.9,11.6,4.2,12,4.2z"/>
	<path class="st0" d="M5.3,17.6l-1.6,1.6c-0.3,0.3-0.3,0.8,0,1.2c0.1,0.1,0.4,0.2,0.6,0.2s0.4-0.1,0.6-0.2l1.6-1.6
		c0.3-0.3,0.3-0.8,0-1.2C6.2,17.2,5.7,17.2,5.3,17.6z"/>
	<path class="st0" d="M18.1,6.7c0.2,0,0.4-0.1,0.6-0.2l1.7-1.7c0.3-0.3,0.3-0.8,0-1.2c-0.3-0.3-0.8-0.3-1.2,0l-1.6,1.6
		c-0.3,0.3-0.3,0.8,0,1.2C17.7,6.7,17.9,6.7,18.1,6.7z"/>
	<path class="st0" d="M4.2,12c0-0.5-0.4-0.8-0.8-0.8H1.2c-0.5,0-0.8,0.4-0.8,0.8c0,0.4,0.4,0.8,0.8,0.8h2.2
		C3.9,12.8,4.2,12.4,4.2,12z"/>
	<path class="st0" d="M22.9,11.3h-2.2c-0.5,0-0.8,0.4-0.8,0.8c0,0.4,0.4,0.8,0.8,0.8h2.2c0.5,0,0.8-0.4,0.8-0.8
		C23.7,11.6,23.3,11.3,22.9,11.3z"/>
	<path class="st0" d="M5.3,6.5c0.2,0.2,0.4,0.2,0.6,0.2s0.4-0.1,0.6-0.2c0.3-0.3,0.3-0.8,0-1.2L4.8,3.8C4.5,3.5,4,3.5,3.6,3.8
		c-0.1,0.3-0.1,0.8,0.2,1L5.3,6.5z"/>
	<path class="st0" d="M18.7,17.6c-0.3-0.3-0.8-0.3-1.2,0c-0.3,0.3-0.3,0.8,0,1.2l1.6,1.6c0.2,0.2,0.4,0.2,0.6,0.2s0.4-0.1,0.6-0.2
		c0.3-0.3,0.3-0.8,0-1.2L18.7,17.6z"/>
	<path class="st0" d="M12,5.8c-3.4,0-6.2,2.8-6.2,6.2s2.8,6.2,6.2,6.2s6.2-2.8,6.2-6.2S15.5,5.8,12,5.8z M12,16.6
		c-2.5,0-4.6-2-4.6-4.6s2-4.6,4.6-4.6s4.6,2,4.6,4.6S14.6,16.6,12,16.6z"/>
</g>
</svg>
