<?xml version="1.0" encoding="utf-8"?>
<!-- Generator: Adobe Illustrator 24.2.1, SVG Export Plug-In . SVG Version: 6.00 Build 0)  -->
<svg version="1.1" id="Capa_1" xmlns="http://www.w3.org/2000/svg" xmlns:xlink="http://www.w3.org/1999/xlink" x="0px" y="0px"
	 viewBox="0 0 24 24" style="enable-background:new 0 0 24 24;" xml:space="preserve">
<style type="text/css">
	.st0{stroke:#000000;stroke-width:0.75;stroke-miterlimit:10;}
</style>
<path class="st0" d="M24,13.6c-0.1-0.2-0.3-0.3-0.5-0.4c-1.9-0.3-3.5-1.5-4.3-3.3c-0.7-1.8-0.5-3.9,0.7-5.4C20,4.4,20,4.1,20,3.9
	c-0.1-0.2-0.3-0.3-0.5-0.4c-1.2-0.1-2.3,0-3.4,0.5c-2,0.8-3.5,2.6-3.9,4.6c-1-1-2.3-1.7-3.8-1.7c-2.8,0-5,2.2-5,5l0,0
	C1.5,12.1,0,13.6,0,15.5C0,17.4,1.6,19,3.6,19h9.7c1.7,0,3.3-1,4.1-2.4c0.5,0.1,0.8,0.1,1.3,0.1c0.8,0,1.7-0.2,2.5-0.5
	c1.1-0.5,2-1.2,2.7-2.1C24,14,24,13.8,24,13.6z M13.3,17.9H3.6c-1.4,0-2.4-1-2.4-2.4c0-1.3,1.1-2.4,2.4-2.4c0.1,0,0.2,0,0.3,0
	c0.2,0,0.4-0.1,0.5-0.2c0.1-0.1,0.2-0.3,0.1-0.5c0-0.1,0-0.3,0-0.5c0-2.1,1.7-3.7,3.9-3.7c1.7,0,3.2,1.1,3.7,2.6v0.1
	c0.1,0.3,0.4,0.4,0.6,0.4c0.2,0,0.4-0.1,0.6-0.1c1.9,0,3.4,1.5,3.4,3.4C16.7,16.4,15.2,17.9,13.3,17.9z M20.7,15.2
	c-1,0.4-1.9,0.5-2.9,0.3c0.1-0.3,0.1-0.6,0.1-1c0-2.5-2.1-4.5-4.6-4.5c-0.1,0-0.1,0-0.1,0c0.1-2.1,1.4-4.1,3.4-4.9
	c0.6-0.3,1.2-0.4,1.8-0.4c-0.9,1.7-1,3.8-0.3,5.7s2.3,3.2,4.2,3.8C21.8,14.6,21.3,15,20.7,15.2z"/>
</svg>
