<?xml version="1.0" encoding="utf-8"?>
<!-- Generator: Adobe Illustrator 24.2.1, SVG Export Plug-In . SVG Version: 6.00 Build 0)  -->
<svg version="1.1" id="Capa_1" xmlns="http://www.w3.org/2000/svg" xmlns:xlink="http://www.w3.org/1999/xlink" x="0px" y="0px"
	 viewBox="0 0 24 24" style="enable-background:new 0 0 24 24;" xml:space="preserve">
<path d="M22.2,18.1c-0.2-0.3-0.4-0.6-0.8-0.6c-3.3-0.4-6.2-2.6-7.4-5.7c-1.3-3.1-0.8-6.6,1.2-9.3c0.3-0.3,0.3-0.7,0.2-1
	s-0.4-0.6-0.8-0.6c-0.5-0.1-1-0.1-1.5-0.1c-1.5,0-2.9,0.3-4.4,0.9C5.8,2.8,3.5,5,2.4,7.9c-1.2,2.8-1.2,5.9,0,8.7
	c1.8,4.3,5.9,7.1,10.5,7.1l0,0c1.5,0,2.9-0.3,4.4-0.9c1.8-0.8,3.4-2,4.7-3.6C22.2,18.8,22.2,18.5,22.2,18.1z M16.6,20.9
	c-1.1,0.5-2.3,0.7-3.6,0.7c-3.8,0-7.2-2.2-8.7-5.8c-0.9-2.3-0.9-4.8,0-7.2S7,4.5,9.3,3.5c1-0.4,2.1-0.7,3.1-0.7
	c-1.6,3-1.8,6.5-0.5,9.7s4,5.6,7.2,6.5C18.5,19.8,17.6,20.4,16.6,20.9z"/>
</svg>
