<?xml version="1.0" encoding="utf-8"?>
<!-- Generator: Adobe Illustrator 24.2.1, SVG Export Plug-In . SVG Version: 6.00 Build 0)  -->
<svg version="1.1" id="Capa_1" xmlns="http://www.w3.org/2000/svg" xmlns:xlink="http://www.w3.org/1999/xlink" x="0px" y="0px"
	 viewBox="0 0 24 24" style="enable-background:new 0 0 24 24;" xml:space="preserve">
<style type="text/css">
	.st0{stroke:#000000;stroke-width:0.75;stroke-miterlimit:10;}
</style>
<g>
	<g>
		<path class="st0" d="M18.4,4.1L18.4,4.1c-0.6-1-1.3-1.9-2.4-2.6c-1.1-0.8-2.5-1.2-3.8-1.2c-1.4,0-2.8,0.4-3.9,1.2
			c-1,0.7-1.7,1.5-2.2,2.6c-0.3,0-0.5,0-0.8,0C2.7,4.1,0.5,6.3,0.5,9s2.2,4.9,4.9,4.9h13.1c2.7,0,4.9-2.2,4.9-4.9S21.2,4.1,18.4,4.1
			z M18.4,12.5H5.4c-1.9,0-3.5-1.6-3.5-3.5s1.6-3.5,3.5-3.5c0.3,0,0.7,0,1,0.1C6.7,5.7,7,5.5,7.2,5.2c0.8-2.1,2.9-3.5,5.1-3.5
			s4.2,1.3,5.1,3.4c0.1,0.3,0.4,0.5,0.8,0.5c0.2,0,0.3,0,0.5,0c1.9,0,3.5,1.6,3.5,3.5S20.4,12.5,18.4,12.5z"/>
	</g>
</g>
<g>
	<g>
		<path class="st0" d="M7.5,20.7c-0.4-0.1-0.8,0.1-0.9,0.5L6,22.8c-0.1,0.4,0.1,0.8,0.5,0.9c0.1,0,0.1,0,0.2,0
			c0.3,0,0.6-0.2,0.7-0.5l0.5-1.6C8,21.3,7.8,20.9,7.5,20.7z"/>
	</g>
</g>
<g>
	<g>
		<path class="st0" d="M12.1,20.7c-0.4-0.1-0.8,0.1-0.9,0.5l-0.6,1.6c-0.1,0.4,0.1,0.8,0.5,0.9c0.1,0,0.1,0,0.2,0
			c0.3,0,0.6-0.2,0.7-0.5l0.5-1.6C12.7,21.3,12.5,20.9,12.1,20.7z"/>
	</g>
</g>
<g>
	<g>
		<path class="st0" d="M16.8,20.7c-0.4-0.1-0.8,0.1-0.9,0.5l-0.6,1.6c-0.1,0.4,0.1,0.8,0.5,0.9c0.1,0,0.1,0,0.2,0
			c0.3,0,0.6-0.2,0.7-0.5l0.5-1.6C17.4,21.3,17.2,20.9,16.8,20.7z"/>
	</g>
</g>
<g>
	<g>
		<path class="st0" d="M5.6,15.9c-0.4-0.1-0.8,0.1-0.9,0.5L4.3,18c-0.1,0.4,0.1,0.8,0.5,0.9c0.1,0,0.1,0,0.2,0
			c0.3,0,0.6-0.2,0.7-0.5l0.5-1.6C6.2,16.4,6,16.1,5.6,15.9z"/>
	</g>
</g>
<g>
	<g>
		<path class="st0" d="M10.3,15.9c-0.4-0.1-0.8,0.1-0.9,0.5L9,18c-0.1,0.4,0.1,0.8,0.5,0.9c0.1,0,0.1,0,0.2,0c0.3,0,0.6-0.2,0.7-0.5
			l0.5-1.6C10.9,16.4,10.7,16.1,10.3,15.9z"/>
	</g>
</g>
<g>
	<g>
		<path class="st0" d="M15,15.9c-0.4-0.1-0.8,0.1-0.9,0.5L13.7,18c-0.1,0.4,0.1,0.8,0.5,0.9c0.1,0,0.1,0,0.2,0
			c0.3,0,0.6-0.2,0.7-0.5l0.5-1.6C15.6,16.4,15.4,16.1,15,15.9z"/>
	</g>
</g>
<g>
	<g>
		<path class="st0" d="M19.7,15.9c-0.4-0.1-0.8,0.1-0.9,0.5L18.2,18c-0.1,0.4,0.1,0.8,0.5,0.9c0.1,0,0.1,0,0.2,0
			c0.3,0,0.6-0.2,0.7-0.5l0.5-1.6C20.3,16.4,20.1,16.1,19.7,15.9z"/>
	</g>
</g>
</svg>
