<?xml version="1.0" encoding="utf-8"?>
<!-- Generator: Adobe Illustrator 24.2.1, SVG Export Plug-In . SVG Version: 6.00 Build 0)  -->
<svg version="1.1" id="Capa_1" xmlns="http://www.w3.org/2000/svg" xmlns:xlink="http://www.w3.org/1999/xlink" x="0px" y="0px"
	 viewBox="0 0 24 24" style="enable-background:new 0 0 24 24;" xml:space="preserve">
<path d="M22.1,16.8l-2.4-1.4l2.1-1.2c0.4-0.2,0.5-0.7,0.3-1.1c-0.2-0.4-0.7-0.5-1.1-0.3L18,14.5l-1.7-1v-3.1l1.7-1l2.9,1.7
	c0.1,0.1,0.3,0.1,0.4,0.1c0.3,0,0.6-0.1,0.7-0.4c0.2-0.4,0.1-0.9-0.3-1.1l-2.1-1.2l2.4-1.4c0.4-0.2,0.5-0.7,0.3-1.1
	c-0.2-0.4-0.7-0.5-1.1-0.3l-2.4,1.4l0-2.4c0-0.5-0.4-0.8-0.8-0.8c-0.5,0-0.8,0.4-0.8,0.8l0,3.4l-1.7,1l-2.7-1.5v-2l2.9-1.7
	c0.4-0.2,0.5-0.7,0.3-1.1c-0.2-0.4-0.7-0.5-1.1-0.3l-2.1,1.2V0.8C12.8,0.4,12.5,0,12,0c-0.5,0-0.8,0.4-0.8,0.8v2.8L9.1,2.4
	C8.7,2.2,8.2,2.3,8,2.7C7.7,3.1,7.9,3.6,8.3,3.8l2.9,1.7v2L8.5,9L6.8,8l0-3.4c0-0.5-0.4-0.8-0.8-0.8c0,0,0,0,0,0
	c-0.4,0-0.8,0.4-0.8,0.8l0,2.4L2.8,5.7C2.4,5.5,1.9,5.6,1.7,6C1.4,6.4,1.6,6.9,1.9,7.1l2.4,1.4L2.3,9.8C1.9,10,1.8,10.5,2,10.9
	c0.2,0.3,0.4,0.4,0.7,0.4c0.1,0,0.3,0,0.4-0.1L6,9.4l1.7,1v3.1l-1.7,1l-2.9-1.7c-0.4-0.2-0.9-0.1-1.1,0.3c-0.2,0.4-0.1,0.9,0.3,1.1
	l2.1,1.2l-2.4,1.4c-0.4,0.2-0.5,0.7-0.3,1.1c0.2,0.3,0.4,0.4,0.7,0.4c0.1,0,0.3,0,0.4-0.1l2.4-1.4l0,2.4c0,0.4,0.4,0.8,0.8,0.8
	c0,0,0,0,0,0c0.5,0,0.8-0.4,0.8-0.8l0-3.4l1.7-1l2.7,1.5v2l-2.9,1.7c-0.4,0.2-0.5,0.7-0.3,1.1c0.2,0.3,0.4,0.4,0.7,0.4
	c0.1,0,0.3,0,0.4-0.1l2.1-1.2v2.8c0,0.5,0.4,0.8,0.8,0.8c0.5,0,0.8-0.4,0.8-0.8v-2.8l2.1,1.2c0.1,0.1,0.3,0.1,0.4,0.1
	c0.3,0,0.6-0.1,0.7-0.4c0.2-0.4,0.1-0.9-0.3-1.1l-2.9-1.7v-2l2.7-1.5l1.7,1l0,3.4c0,0.5,0.4,0.8,0.8,0.8c0,0,0,0,0,0
	c0.4,0,0.8-0.4,0.8-0.8l0-2.4l2.4,1.4c0.1,0.1,0.3,0.1,0.4,0.1c0.3,0,0.6-0.1,0.7-0.4C22.6,17.6,22.5,17.1,22.1,16.8z M9.4,10.4
	L12,8.9l2.7,1.5v3.1L12,15.1l-2.7-1.5V10.4z"/>
</svg>
