<?xml version="1.0" encoding="utf-8"?>
<!-- Generator: Adobe Illustrator 24.2.1, SVG Export Plug-In . SVG Version: 6.00 Build 0)  -->
<svg version="1.1" id="Capa_1" xmlns="http://www.w3.org/2000/svg" xmlns:xlink="http://www.w3.org/1999/xlink" x="0px" y="0px"
	 viewBox="0 0 24 24" style="enable-background:new 0 0 24 24;" xml:space="preserve">
<path d="M21.6,8.9c-0.2-0.3-0.5-0.5-0.9-0.5h-6.3l3.9-6.9c0.2-0.3,0.2-0.7,0-0.9C18.2,0.2,17.9,0,17.6,0h-6.5
	c-0.3,0-0.7,0.2-0.8,0.5L2.4,14.3c-0.2,0.3-0.2,0.7,0,0.9c0.2,0.3,0.5,0.5,0.8,0.5H10l-1.7,7.2c-0.1,0.4,0.1,0.9,0.5,1.1
	C8.9,24,9.1,24,9.2,24c0.3,0,0.5-0.1,0.7-0.3L21.5,9.9C21.7,9.6,21.8,9.2,21.6,8.9z M11.1,19.4l1.1-4.4c0.1-0.3,0-0.6-0.2-0.8
	c-0.2-0.2-0.5-0.4-0.7-0.4H4.9l6.8-11.9H16L12,8.8c-0.2,0.3-0.2,0.7,0,0.9c0.2,0.3,0.5,0.5,0.8,0.5h5.9L11.1,19.4z"/>
</svg>
